<svg version="1.1" id="Layer_1" xmlns="http://www.w3.org/2000/svg" xmlns:xlink="http://www.w3.org/1999/xlink" x="0px" y="0px"
	 width="100%" viewBox="0 0 816 336" enable-background="new 0 0 816 336" xml:space="preserve">
<path fill="#000000" opacity="1.000000" stroke="none" 
	d="
M124.787247,246.334900 
	C116.931961,240.938278 114.007057,233.392029 113.984886,224.614258 
	C113.914192,196.625183 113.812859,168.634109 114.075386,140.647125 
	C114.213501,125.923996 125.143120,116.340027 139.865692,117.085045 
	C143.331635,117.260429 145.230911,118.497833 144.906174,122.193176 
	C144.629562,125.340767 144.573822,128.522644 144.066360,131.631577 
	C143.297958,136.339310 145.183044,139.926407 148.803467,142.400726 
	C152.164276,144.697617 156.173126,144.734192 159.750031,142.783325 
	C163.823456,140.561646 165.197281,136.667618 164.903091,132.182205 
	C164.685577,128.865662 164.208527,125.564003 164.053955,122.246086 
	C163.898239,118.903557 165.262909,116.969360 169.025101,117.006897 
	C179.853180,117.114929 190.683167,117.073318 201.512131,117.025864 
	C204.664352,117.012054 205.899384,118.486534 206.096695,121.570717 
	C206.355865,125.622169 205.115250,129.506378 205.121460,133.496201 
	C205.134415,141.814178 213.217529,146.898895 220.443405,143.159286 
	C224.019958,141.308304 225.811035,138.301285 225.784546,134.251663 
	C225.757324,130.086838 225.827637,125.917587 225.654556,121.758629 
	C225.501236,118.074989 227.153854,116.676552 230.733932,116.766411 
	C241.978546,117.048691 252.144318,126.463135 252.233078,137.751343 
	C252.471466,168.071472 252.444305,198.395447 252.254303,228.716217 
	C252.189102,239.123932 243.342682,248.446777 232.592865,250.242538 
	C229.975662,250.679733 227.291779,250.903885 224.638077,250.907684 
	C196.481964,250.947983 168.325638,250.880402 140.169662,250.954910 
	C134.639572,250.969543 129.640152,249.646057 124.787247,246.334900 
M157.501129,166.277191 
	C153.001724,166.277374 148.485641,166.518967 144.007629,166.209518 
	C139.572632,165.903015 138.232712,167.645599 138.275452,171.965042 
	C138.441956,188.794022 138.425629,205.627441 138.209778,222.455750 
	C138.155731,226.670242 139.639496,227.857574 143.696350,227.841690 
	C170.025299,227.738525 196.355530,227.765930 222.684021,227.944672 
	C227.156906,227.975052 228.826340,226.661591 228.752243,221.961151 
	C228.492279,205.467453 228.485840,188.965485 228.710968,172.471115 
	C228.775772,167.722794 227.356964,166.117462 222.490524,166.169968 
	C201.162689,166.400101 179.831024,166.274597 157.501129,166.277191 
z"/>
<path fill="#000000" opacity="1.000000" stroke="none" 
	d="
M350.785034,221.486237 
	C343.538116,216.726898 340.992889,209.825897 340.829102,202.020660 
	C340.584595,190.371048 340.719208,178.712143 340.790710,167.057816 
	C340.825043,161.459244 341.320465,161.384735 350.137848,161.386230 
	C354.713806,161.387009 353.535645,164.338562 353.573853,166.861252 
	C353.730011,177.173279 353.792145,187.488434 354.106873,197.795792 
	C354.331238,205.144150 356.705780,208.448120 361.923645,209.506577 
	C367.111755,210.558975 373.724762,206.827087 376.090851,201.477509 
	C377.178223,199.018982 377.752197,196.462692 377.739594,193.736908 
	C377.701935,185.579041 377.772552,177.420746 377.780212,169.262589 
	C377.787384,161.652786 377.775696,161.652969 385.596588,161.694458 
	C386.262573,161.697998 386.930573,161.731277 387.594147,161.691788 
	C390.047333,161.545822 391.291107,162.540421 391.288910,165.142212 
	C391.273773,182.957184 391.302094,200.772232 391.342560,218.587189 
	C391.347900,220.936417 390.238953,222.139832 387.966827,221.652756 
	C384.043427,220.811676 378.234314,223.645630 377.541748,215.575623 
	C369.551575,222.841415 361.268280,226.982040 350.785034,221.486237 
z"/>
<path fill="#000000" opacity="1.000000" stroke="none" 
	d="
M525.437561,205.571564 
	C528.446716,210.271057 531.910034,214.292328 534.172668,219.202759 
	C525.954102,221.718155 523.429932,220.896454 519.167419,214.869522 
	C516.474182,211.061462 513.705933,207.306427 511.021301,203.492432 
	C509.721436,201.645737 508.300751,200.402542 505.786224,200.261230 
	C497.739471,199.809036 497.301422,200.115219 497.278351,208.154556 
	C497.272614,210.153809 497.284668,212.153229 497.264069,214.152298 
	C497.202667,220.111221 496.496033,220.652634 490.584595,220.357651 
	C487.890625,220.223236 486.673828,219.250931 486.680023,216.478729 
	C486.719208,198.985443 486.704956,181.491959 486.657501,163.998672 
	C486.650360,161.358505 487.634827,159.873047 490.416290,159.905548 
	C498.908051,160.004715 507.441254,159.609482 515.881042,160.322159 
	C526.068237,161.182388 531.461731,166.343399 533.640747,175.745346 
	C535.329468,183.031845 531.215027,191.871567 523.925598,196.607285 
	C523.114990,197.133942 522.289429,197.637695 521.468384,198.153580 
	C521.737122,201.243484 524.028320,202.972031 525.437561,205.571564 
M506.513458,170.046143 
	C505.517822,170.032104 504.509857,170.113724 503.528625,169.987701 
	C498.891724,169.392166 496.713654,171.063431 497.234619,176.038193 
	C497.578430,179.321365 497.350403,182.670700 497.283447,185.988495 
	C497.235260,188.375931 498.045898,189.813660 500.677277,189.765350 
	C504.824066,189.689224 508.998413,189.945663 513.112793,189.554169 
	C518.757141,189.017059 522.841858,184.099030 522.653625,178.668488 
	C522.475708,173.534836 518.690002,170.344894 512.447205,170.106171 
	C510.789612,170.042786 509.128571,170.068695 506.513458,170.046143 
z"/>
<path fill="#000000" opacity="1.000000" stroke="none" 
	d="
M401.421753,219.679504 
	C399.388428,217.471298 395.157043,216.691589 398.022888,212.525543 
	C402.420197,206.133240 403.354187,205.619186 408.508331,208.126953 
	C412.645508,210.139908 416.891266,211.400452 421.522369,210.619431 
	C423.725983,210.247818 425.983765,209.472443 426.390869,207.000931 
	C426.855652,204.179337 424.380219,203.435745 422.354156,202.756927 
	C418.256683,201.384094 413.993683,200.455017 409.990326,198.861893 
	C400.224365,194.975540 395.518188,186.768280 397.508423,177.675476 
	C399.758270,167.396622 408.470520,160.656326 418.926880,161.252029 
	C424.457336,161.567108 429.714600,162.895020 434.709961,165.480499 
	C437.976501,167.171188 438.634735,168.702530 436.540466,172.010910 
	C433.858765,176.247223 431.208099,178.490128 426.145142,175.511398 
	C423.217377,173.788895 419.723694,173.912125 416.373169,174.202133 
	C413.879333,174.417984 411.843170,175.458893 411.027008,178.000397 
	C410.136597,180.773117 411.866913,182.620697 413.887299,183.767014 
	C416.612793,185.313431 419.631805,186.351273 422.549042,187.548508 
	C425.315552,188.683945 428.181763,189.597412 430.883423,190.865646 
	C437.268921,193.863266 440.426605,199.010803 440.181763,206.048691 
	C439.923431,213.473572 436.664795,219.080536 429.761810,222.348969 
	C422.218475,225.920624 414.663208,225.944656 407.077911,222.575729 
	C405.255951,221.766525 403.508026,220.790558 401.421753,219.679504 
z"/>
<path fill="#000000" opacity="1.000000" stroke="none" 
	d="
M679.510376,160.068405 
	C688.811340,161.191498 695.355286,165.389236 698.043640,174.212997 
	C701.563538,185.766037 693.515137,198.188721 681.408081,200.263336 
	C677.292786,200.968521 673.137085,201.243256 668.991150,200.957413 
	C664.783447,200.667313 662.769348,202.064285 663.202148,206.584564 
	C663.501831,209.714066 663.135254,212.901398 663.277649,216.053360 
	C663.467834,220.265060 660.806946,220.395767 657.717224,220.368805 
	C654.790283,220.343277 652.575562,220.143753 652.606812,216.191010 
	C652.743469,198.902771 652.713013,181.612717 652.635681,164.323776 
	C652.621155,161.075745 654.021240,159.852356 657.121826,159.893921 
	C664.434998,159.991959 671.749451,159.986206 679.510376,160.068405 
M686.577332,183.089127 
	C688.307251,174.636978 685.012756,170.392090 676.417236,170.106018 
	C673.262634,170.001038 670.102234,170.080368 666.944702,170.051453 
	C664.521667,170.029282 663.239502,171.064346 663.268677,173.625656 
	C663.319885,178.112381 663.257629,182.600296 663.277954,187.087555 
	C663.283997,188.419296 663.341309,189.697662 664.877441,190.411057 
	C670.659729,193.096420 682.539978,189.454697 686.577332,183.089127 
z"/>
<path fill="#000000" opacity="1.000000" stroke="none" 
	d="
M541.892456,178.662125 
	C542.022766,169.183884 546.101624,163.319611 554.516663,160.609726 
	C562.794800,157.943954 570.959656,158.647110 578.847900,162.275650 
	C580.890015,163.215012 583.018372,164.418732 581.242432,167.142212 
	C579.745422,169.437790 579.000366,173.369095 574.738525,171.308563 
	C570.533813,169.275650 566.115967,168.867325 561.579651,169.270599 
	C557.717041,169.613953 554.194702,170.770081 553.443726,175.215134 
	C552.709290,179.562302 555.731689,181.547928 559.154541,182.881058 
	C562.872742,184.329193 566.723755,185.433044 570.463074,186.830841 
	C580.719360,190.664810 585.472961,196.637421 584.925293,204.845566 
	C584.344971,213.543472 577.790161,220.237793 567.443542,221.944473 
	C559.000427,223.337158 550.843140,222.082687 543.431641,217.444550 
	C541.569031,216.278946 539.275452,215.029114 541.221313,212.436172 
	C542.943115,210.141830 543.781555,206.104675 548.268311,207.851944 
	C551.208496,208.996933 554.148315,210.170975 557.161621,211.091965 
	C560.419617,212.087692 563.708984,211.803482 567.012878,210.927994 
	C570.451538,210.016800 572.660278,208.159241 572.907166,204.461777 
	C573.149292,200.834671 570.847046,198.948807 567.901550,197.804077 
	C564.494507,196.480026 560.966064,195.470993 557.502441,194.289734 
	C549.901550,191.697495 543.562073,187.801147 541.892456,178.662125 
z"/>
<path fill="#000000" opacity="1.000000" stroke="none" 
	d="
M448.173340,166.433487 
	C448.509125,165.657928 448.697540,165.170044 448.694305,164.683456 
	C448.635925,155.966049 448.818176,156.945572 457.110260,156.610138 
	C461.640869,156.426865 463.693481,157.866364 463.141571,162.516800 
	C462.710602,166.148453 464.754730,166.988358 467.981018,167.007568 
	C474.773590,167.048050 477.263550,170.940308 475.088715,177.627167 
	C474.174622,180.437698 471.765320,180.318466 469.742462,180.068909 
	C464.227020,179.388474 462.832336,181.905716 463.225769,186.950745 
	C463.612976,191.915359 463.293579,196.932999 463.341248,201.926834 
	C463.378601,205.841080 464.736115,208.552338 469.326691,207.658371 
	C472.904602,206.961609 473.433319,209.571960 474.285614,211.924973 
	C477.213715,220.008484 475.647278,222.429047 466.956024,223.239822 
	C456.209351,224.242355 449.301117,217.382660 448.867371,204.944595 
	C448.629639,198.127396 448.800812,191.295166 448.829468,184.469894 
	C448.839508,182.081772 448.491333,180.095932 445.436920,180.106888 
	C441.002655,180.122818 440.853821,177.145645 441.229919,173.910904 
	C441.613770,170.609451 440.827942,166.331894 446.538086,167.154648 
	C446.974457,167.217529 447.469208,166.875549 448.173340,166.433487 
z"/>
<path fill="#000000" opacity="1.000000" stroke="none" 
	d="
M601.057617,162.937744 
	C606.186401,176.687195 611.156006,190.074631 616.632996,204.829056 
	C618.332092,200.603149 619.587891,197.635117 620.725220,194.622391 
	C624.249634,185.287125 627.768799,175.949493 631.212463,166.584259 
	C633.677734,159.879898 636.616028,158.606766 643.798767,161.378296 
	C644.402527,163.277191 643.337769,164.904556 642.770935,166.583191 
	C637.020325,183.612839 629.863647,200.101044 623.379150,216.848480 
	C622.612366,218.828796 621.718628,220.618759 619.215027,220.330597 
	C616.417786,220.008621 612.784729,221.759460 611.142273,218.158325 
	C602.725647,199.704865 596.069885,180.567383 588.593140,160.832199 
	C593.397583,160.370346 597.493286,158.024277 601.057617,162.937744 
z"/>
<path fill="#000000" opacity="1.000000" stroke="none" 
	d="
M333.932709,192.141815 
	C333.862823,197.768082 334.221436,202.902588 333.430420,208.053268 
	C331.610077,219.906158 321.578125,227.255447 309.638397,225.070129 
	C304.865723,224.196594 300.370605,222.432297 296.374237,219.583878 
	C294.051178,217.928116 293.427460,216.058838 295.726562,213.853973 
	C296.325653,213.279465 297.012634,212.721741 297.401062,212.014511 
	C299.960022,207.354904 302.893127,206.942230 307.819672,209.384018 
	C315.140167,213.012360 320.514709,209.075577 320.624329,200.695343 
	C320.774445,189.220337 320.928741,177.735031 320.601990,166.267776 
	C320.380707,158.503143 326.178680,162.016907 329.373322,161.330505 
	C333.420349,160.460983 333.672516,163.532623 333.531677,166.734131 
	C333.166016,175.044556 333.338226,183.358902 333.932709,192.141815 
z"/>
<path fill="#000000" opacity="1.000000" stroke="none" 
	d="
M164.527618,100.829491 
	C165.682831,109.003975 158.597076,115.228752 151.767426,112.405663 
	C147.646103,110.702072 144.666046,107.642921 144.970993,102.959602 
	C145.258041,98.551201 148.242126,95.810074 152.471512,94.683739 
	C157.236618,93.414734 161.477158,95.548378 164.527618,100.829491 
z"/>
<path fill="#000000" opacity="1.000000" stroke="none" 
	d="
M206.813568,99.250351 
	C209.446472,95.537575 212.736969,93.846680 216.882080,94.375374 
	C222.539322,95.096939 226.263153,100.138298 225.187088,105.338669 
	C224.142960,110.384743 218.436188,113.894112 213.342331,112.622612 
	C207.144592,111.075554 204.642212,106.224152 206.813568,99.250351 
z"/>
</svg>